<svg width="10056" height="1298" viewBox="0 0 10056 1298" fill="none" xmlns="http://www.w3.org/2000/svg">
<path d="M5363.31 434.285L5190.59 908.848H5120L5318.87 388.152H5364.38L5363.31 434.285ZM5508.07 908.848L5335 434.285L5333.92 388.152H5379.43L5579.02 908.848H5508.07ZM5499.11 716.09V772.594H5206V716.09H5499.11Z" fill="white"/>
<path d="M5941.65 388.152H6010.45V740.408C6010.45 779.508 6001.73 812.052 5984.29 838.039C5966.85 864.026 5943.68 883.576 5914.78 896.689C5886.11 909.563 5854.94 916 5821.25 916C5785.9 916 5753.89 909.563 5725.22 896.689C5696.79 883.576 5674.22 864.026 5657.5 838.039C5641.01 812.052 5632.77 779.508 5632.77 740.408V388.152H5701.21V740.408C5701.21 767.588 5706.23 789.998 5716.26 807.641C5726.29 825.284 5740.27 838.396 5758.19 846.979C5776.34 855.562 5797.36 859.854 5821.25 859.854C5845.38 859.854 5866.4 855.562 5884.32 846.979C5902.47 838.396 5916.57 825.284 5926.6 807.641C5936.63 789.998 5941.65 767.588 5941.65 740.408V388.152Z" fill="white"/>
<path d="M6311.81 388.152V908.848H6243.72V388.152H6311.81ZM6479.51 388.152V444.656H6076.38V388.152H6479.51Z" fill="white"/>
<path d="M6948.56 632.049V664.951C6948.56 704.05 6943.66 739.097 6933.87 770.091C6924.07 801.085 6909.98 827.429 6891.59 849.125C6873.19 870.821 6851.09 887.39 6825.29 898.834C6799.73 910.278 6771.07 916 6739.29 916C6708.48 916 6680.17 910.278 6654.37 898.834C6628.81 887.39 6606.59 870.821 6587.72 849.125C6569.09 827.429 6554.64 801.085 6544.36 770.091C6534.09 739.097 6528.95 704.05 6528.95 664.951V632.049C6528.95 592.95 6533.97 558.022 6544 527.267C6554.28 496.273 6568.73 469.928 6587.36 448.233C6606 426.299 6628.09 409.61 6653.65 398.166C6679.45 386.722 6707.76 381 6738.58 381C6770.35 381 6799.02 386.722 6824.58 398.166C6850.38 409.61 6872.47 426.299 6890.87 448.233C6909.5 469.928 6923.72 496.273 6933.51 527.267C6943.54 558.022 6948.56 592.95 6948.56 632.049ZM6880.12 664.951V631.334C6880.12 600.34 6876.89 572.923 6870.44 549.082C6864.23 525.24 6855.04 505.213 6842.85 489.001C6830.67 472.789 6815.74 460.511 6798.06 452.166C6780.62 443.822 6760.79 439.65 6738.58 439.65C6717.08 439.65 6697.61 443.822 6680.17 452.166C6662.97 460.511 6648.16 472.789 6635.74 489.001C6623.55 505.213 6614.12 525.24 6607.43 549.082C6600.74 572.923 6597.4 600.34 6597.4 631.334V664.951C6597.4 696.183 6600.74 723.839 6607.43 747.918C6614.12 771.76 6623.67 791.906 6636.1 808.356C6648.76 824.568 6663.69 836.847 6680.89 845.191C6698.33 853.536 6717.79 857.708 6739.29 857.708C6761.75 857.708 6781.7 853.536 6799.14 845.191C6816.57 836.847 6831.27 824.568 6843.21 808.356C6855.39 791.906 6864.59 771.76 6870.8 747.918C6877.01 723.839 6880.12 696.183 6880.12 664.951Z" fill="white"/>
<path d="M7453.45 388.152V908.848H7383.93L7121.27 507.24V908.848H7052.12V388.152H7121.27L7385.01 790.833V388.152H7453.45Z" fill="white"/>
<path d="M7775.59 434.285L7602.87 908.848H7532.28L7731.15 388.152H7776.66L7775.59 434.285ZM7920.35 908.848L7747.28 434.285L7746.2 388.152H7791.71L7991.3 908.848H7920.35ZM7911.39 716.09V772.594H7618.28V716.09H7911.39Z" fill="white"/>
<path d="M8353.93 388.152H8422.73V740.408C8422.73 779.508 8414.01 812.052 8396.57 838.039C8379.13 864.026 8355.96 883.576 8327.06 896.689C8298.39 909.563 8267.22 916 8233.53 916C8198.18 916 8166.17 909.563 8137.5 896.689C8109.07 883.576 8086.5 864.026 8069.78 838.039C8053.29 812.052 8045.05 779.508 8045.05 740.408V388.152H8113.49V740.408C8113.49 767.588 8118.51 789.998 8128.54 807.641C8138.57 825.284 8152.55 838.396 8170.47 846.979C8188.62 855.562 8209.64 859.854 8233.53 859.854C8257.66 859.854 8278.68 855.562 8296.6 846.979C8314.75 838.396 8328.85 825.284 8338.88 807.641C8348.91 789.998 8353.93 767.588 8353.93 740.408V388.152Z" fill="white"/>
<path d="M8724.09 388.152V908.848H8656V388.152H8724.09ZM8891.78 388.152V444.656H8488.66V388.152H8891.78Z" fill="white"/>
<path d="M9043.36 388.152V908.848H8974.2V388.152H9043.36Z" fill="white"/>
<path d="M9484.1 743.269H9552.9C9549.32 776.17 9539.88 805.615 9524.6 831.602C9509.31 857.589 9487.69 878.211 9459.74 893.47C9431.79 908.49 9396.91 916 9355.11 916C9324.53 916 9296.7 910.278 9271.61 898.834C9246.77 887.39 9225.39 871.178 9207.47 850.198C9189.56 828.979 9175.7 803.588 9165.91 774.025C9156.35 744.223 9151.57 711.084 9151.57 674.606V622.751C9151.57 586.274 9156.35 553.254 9165.91 523.691C9175.7 493.889 9189.68 468.379 9207.83 447.16C9226.23 425.941 9248.32 409.61 9274.12 398.166C9299.92 386.722 9328.95 381 9361.2 381C9400.61 381 9433.94 388.391 9461.17 403.172C9488.4 417.954 9509.55 438.458 9524.6 464.683C9539.88 490.67 9549.32 520.83 9552.9 555.161H9484.1C9480.76 530.843 9474.55 509.982 9465.47 492.578C9456.39 474.935 9443.49 461.345 9426.77 451.809C9410.05 442.272 9388.19 437.504 9361.2 437.504C9338.03 437.504 9317.6 441.915 9299.92 450.736C9282.48 459.557 9267.79 472.074 9255.85 488.286C9244.14 504.498 9235.3 523.929 9229.33 546.578C9223.36 569.227 9220.37 594.38 9220.37 622.036V674.606C9220.37 700.117 9223 724.077 9228.26 746.488C9233.75 768.899 9241.99 788.568 9252.98 805.495C9263.97 822.423 9277.95 835.774 9294.91 845.549C9311.87 855.085 9331.93 859.854 9355.11 859.854C9384.49 859.854 9407.9 855.205 9425.34 845.906C9442.78 836.608 9455.92 823.257 9464.76 805.853C9473.83 788.449 9480.28 767.588 9484.1 743.269Z" fill="white"/>
<path d="M9840.29 434.285L9667.57 908.848H9596.98L9795.85 388.152H9841.36L9840.29 434.285ZM9985.05 908.848L9811.98 434.285L9810.9 388.152H9856.41L10056 908.848H9985.05ZM9976.09 716.09V772.594H9682.98V716.09H9976.09Z" fill="white"/>
<path d="M2343.5 593.301C3302.42 425.362 4913.8 467.107 4913.8 467.107L3754.65 1170.19C3754.65 1170.19 2833.86 1111.63 2242.71 1116.11C1362.46 1122.77 0 1278.36 0 1278.36C0 1278.36 1422.21 754.65 2343.5 593.301Z" fill="white"/>
<path d="M1965.52 398.486C2337.22 244.506 2973.48 110.04 2973.48 110.04L3427.06 343.007C3427.06 343.007 2371 523.162 2124.87 575.641C1758.37 653.785 1216.01 836.99 1216.01 836.99C1216.01 836.99 1608.4 546.422 1965.52 398.486Z" fill="white"/>
<path d="M1558.62 416.521C1713.19 293.25 2116.71 52.4668 2116.71 52.4668L2393.9 178.661C2393.9 178.661 1827.42 396.298 1713.53 452.57C1543.94 536.359 1232.44 772.469 1232.44 772.469C1232.44 772.469 1410.11 534.96 1558.62 416.521Z" fill="white"/>
</svg>
